<svg width="166" height="152" viewBox="0 0 166 152" fill="none" xmlns="http://www.w3.org/2000/svg">
<path d="M141.562 53.5701C160.743 68.3168 167.124 100.28 154.362 121.24C137.158 149.573 93.1233 148.301 64.6126 145.793C44.7968 144.034 21.1374 138.195 10.7257 119.481C0.276721 100.617 4.64284 71.8724 19.6446 56.6018C31.1758 44.8493 44.7968 38 75.9944 38" stroke="white" stroke-width="10" stroke-miterlimit="10" stroke-linecap="round" stroke-linejoin="round"/>
<path d="M76 38.023C84.952 21.9992 114.317 22.933 127.127 22.1112C129.412 21.9618 131.809 21.8498 133.794 22.5594C137.727 23.9788 137.578 28.2369 135.817 31.6732C130.199 42.8787 118.475 50.5357 106.302 53.2624C100.833 54.495 94.8778 54.2709 89.7838 51.9178" stroke="white" stroke-width="10" stroke-miterlimit="10" stroke-linecap="round" stroke-linejoin="round"/>
<path d="M26.004 105C26.004 105 25.1864 117.895 47 124" stroke="white" stroke-width="10" stroke-miterlimit="10" stroke-linecap="round" stroke-linejoin="round"/>
<path d="M59 128C59 128 60.3499 128 65 128" stroke="white" stroke-width="10" stroke-miterlimit="10" stroke-linecap="round" stroke-linejoin="round"/>
<path d="M75.6597 45C78.2928 -5.6628 34.4581 6.53786 21.775 5.75672C19.5128 5.60793 17.1393 5.49632 15.1738 6.20307C11.2799 7.61657 11.4282 11.8571 13.1712 15.2792C18.7339 26.4384 30.3416 34.0639 42.3943 36.7793C47.8087 38.0068 72.9525 42.8425 81 13.6425" stroke="white" stroke-width="10" stroke-miterlimit="10" stroke-linecap="round" stroke-linejoin="round"/>
</svg>
